<?xml version="1.0" encoding="UTF-8" standalone="no"?><!DOCTYPE svg PUBLIC "-//W3C//DTD SVG 1.1//EN" "http://www.w3.org/Graphics/SVG/1.1/DTD/svg11.dtd"><svg width="100%" height="100%" viewBox="0 0 2269 369" version="1.1" xmlns="http://www.w3.org/2000/svg" xmlns:xlink="http://www.w3.org/1999/xlink" xml:space="preserve" xmlns:serif="http://www.serif.com/" style="fill-rule:evenodd;clip-rule:evenodd;stroke-linejoin:round;stroke-miterlimit:2;"><path d="M514.144,74.975c2.29,-3.125 3.597,-6.603 3.597,-10.041c0,-10.7 -12.619,-19.668 -28.304,-19.906c0,-0.122 0.016,-0.387 0.016,-0.509c0,-13.575 -11.403,-24.653 -25.475,-24.653c-11.134,0 -20.578,6.868 -24.041,16.472c-3.246,-3.891 -8.306,-6.425 -14.006,-6.425c-9.797,0 -17.734,7.378 -17.734,16.49c0,0.375 0.034,0.731 0.059,1.094c-1.909,-0.488 -3.925,-0.763 -6.015,-0.763c-11.591,0 -20.988,8.66 -20.988,18.641c0,3.291 1.041,6.475 2.825,9.6l130.066,0Z" style="fill:#fff;fill-rule:nonzero;"/><path d="M1457.89,303.1c2.29,-3.125 3.597,-6.603 3.597,-10.041c0,-10.7 -12.619,-19.668 -28.303,-19.906c0,-0.122 0.018,-0.387 0.018,-0.509c0,-13.575 -11.409,-24.653 -25.478,-24.653c-11.134,0 -20.578,6.868 -24.041,16.472c-3.246,-3.891 -8.306,-6.425 -14.006,-6.425c-9.797,0 -17.731,7.378 -17.731,16.49c0,0.375 0.031,0.731 0.053,1.094c-1.903,-0.488 -3.922,-0.763 -6.009,-0.763c-11.594,0 -20.991,8.66 -20.991,18.641c0,3.291 1.041,6.475 2.825,9.6l130.066,0Z" style="fill:#fff;fill-rule:nonzero;"/><path d="M1823.52,162.475c2.29,-3.125 3.597,-6.603 3.597,-10.041c0,-10.7 -12.619,-19.668 -28.304,-19.906c0,-0.122 0.019,-0.387 0.019,-0.509c0,-13.575 -11.409,-24.653 -25.478,-24.653c-11.134,0 -20.578,6.868 -24.04,16.472c-3.247,-3.891 -8.307,-6.425 -14.007,-6.425c-9.797,0 -17.731,7.378 -17.731,16.49c0,0.375 0.031,0.731 0.053,1.094c-1.903,-0.488 -3.922,-0.763 -6.009,-0.763c-11.594,0 -20.991,8.66 -20.991,18.641c0,3.291 1.041,6.475 2.825,9.6l130.066,0Z" style="fill:#fff;fill-rule:nonzero;"/><path d="M1029.77,368.725c2.29,-3.125 3.597,-6.603 3.597,-10.041c0,-10.7 -12.619,-19.668 -28.303,-19.906c0,-0.122 0.015,-0.387 0.015,-0.509c0,-13.575 -11.403,-24.653 -25.475,-24.653c-11.134,0 -20.578,6.868 -24.041,16.472c-3.246,-3.891 -8.306,-6.425 -14.006,-6.425c-9.797,0 -17.734,7.378 -17.734,16.49c0,0.375 0.034,0.731 0.059,1.094c-1.909,-0.488 -3.925,-0.763 -6.015,-0.763c-11.591,0 -20.988,8.66 -20.988,18.641c0,3.291 1.041,6.475 2.825,9.6l130.066,0Z" style="fill:#fff;fill-rule:nonzero;"/><path d="M916.391,318.725c3.506,-6.178 5.512,-10.031 5.512,-15.3c0,-16.416 -19.356,-30.122 -43.422,-30.487c0,-0.191 0.025,-0.566 0.025,-0.757c0,-20.828 -17.497,-37.806 -39.084,-37.806c-17.085,0 -31.572,10.544 -36.885,25.275c-4.978,-5.969 -12.74,-9.853 -21.49,-9.853c-15.025,0 -27.206,11.322 -27.206,25.303c0,0.572 0.053,1.119 0.09,1.681c-2.925,-0.756 -6.019,-1.172 -9.228,-1.172c-17.784,0 -32.2,13.182 -32.2,28.491c0,5.053 1.594,8.447 4.334,14.625l199.554,0Z" style="fill:#fff;fill-rule:nonzero;"/><path d="M203.891,218.725c3.506,-6.178 5.512,-10.031 5.512,-15.3c0,-16.416 -19.356,-30.122 -43.425,-30.487c0.003,-0.191 0.028,-0.566 0.028,-0.757c0,-20.828 -17.497,-37.806 -39.084,-37.806c-17.085,0 -31.572,10.544 -36.888,25.275c-4.975,-5.969 -12.74,-9.853 -21.487,-9.853c-15.028,0 -27.206,11.322 -27.206,25.303c0,0.572 0.05,1.119 0.09,1.681c-2.928,-0.756 -6.022,-1.172 -9.231,-1.172c-17.784,0 -32.2,13.182 -32.2,28.491c0,5.053 1.597,8.447 4.337,14.625l199.554,0Z" style="fill:#fff;fill-rule:nonzero;"/><path d="M1207.02,124.975c3.506,-6.178 5.512,-10.031 5.512,-15.3c0,-16.416 -19.356,-30.122 -43.422,-30.487c0,-0.191 0.025,-0.566 0.025,-0.757c0,-20.828 -17.497,-37.806 -39.084,-37.806c-17.085,0 -31.572,10.544 -36.885,25.275c-4.978,-5.969 -12.74,-9.853 -21.49,-9.853c-15.025,0 -27.206,11.322 -27.206,25.303c0,0.572 0.053,1.119 0.09,1.681c-2.925,-0.756 -6.019,-1.172 -9.228,-1.172c-17.784,0 -32.2,13.182 -32.2,28.491c0,5.053 1.594,8.447 4.334,14.625l199.554,0Z" style="fill:#fff;fill-rule:nonzero;"/><path d="M1741.39,84.35c3.506,-6.178 5.512,-10.031 5.512,-15.3c0,-16.416 -19.356,-30.122 -43.422,-30.487c0,-0.191 0.025,-0.566 0.025,-0.757c0,-20.828 -17.497,-37.806 -39.084,-37.806c-17.085,0 -31.572,10.544 -36.888,25.275c-4.975,-5.969 -12.737,-9.853 -21.487,-9.853c-15.025,0 -27.206,11.322 -27.206,25.303c0,0.572 0.053,1.119 0.093,1.681c-2.931,-0.756 -6.021,-1.172 -9.231,-1.172c-17.784,0 -32.2,13.182 -32.2,28.491c0,5.053 1.594,8.447 4.334,14.625l199.554,0Z" style="fill:#fff;fill-rule:nonzero;"/><path d="M2263.27,278.1c3.506,-6.178 5.512,-10.031 5.512,-15.3c0,-16.416 -19.356,-30.122 -43.422,-30.487c0,-0.191 0.025,-0.566 0.025,-0.757c0,-20.828 -17.497,-37.806 -39.084,-37.806c-17.085,0 -31.572,10.544 -36.888,25.275c-4.975,-5.969 -12.737,-9.853 -21.487,-9.853c-15.025,0 -27.206,11.322 -27.206,25.303c0,0.572 0.053,1.119 0.093,1.681c-2.931,-0.756 -6.021,-1.172 -9.231,-1.172c-17.784,0 -32.2,13.182 -32.2,28.491c0,5.053 1.594,8.447 4.334,14.625l199.554,0Z" style="fill:#fff;fill-rule:nonzero;"/></svg>