<?xml version="1.0" encoding="UTF-8" standalone="no"?><!DOCTYPE svg PUBLIC "-//W3C//DTD SVG 1.1//EN" "http://www.w3.org/Graphics/SVG/1.1/DTD/svg11.dtd"><svg width="100%" height="100%" viewBox="0 0 2500 586" version="1.1" xmlns="http://www.w3.org/2000/svg" xmlns:xlink="http://www.w3.org/1999/xlink" xml:space="preserve" xmlns:serif="http://www.serif.com/" style="fill-rule:evenodd;clip-rule:evenodd;stroke-linejoin:round;stroke-miterlimit:2;"><rect x="2359.38" y="485.509" width="12.5" height="84.375" style="fill:#c49467;fill-rule:nonzero;"/><path d="M2408.27,436.616c3.669,-4.244 5.762,-9.085 5.762,-14.222c0,-9.963 -7.834,-18.775 -19.887,-24.319c3.631,-3.522 5.759,-7.725 5.759,-12.25c0,-12.381 -15.815,-22.422 -35.325,-22.422c-19.506,0 -35.322,10.041 -35.322,22.422c0,4.525 2.129,8.728 5.76,12.25c-12.05,5.544 -19.888,14.356 -19.888,24.319c0,5.137 2.097,9.978 5.76,14.222c-12.425,7.281 -20.194,17.615 -20.194,29.093c0,22.041 28.6,39.91 63.884,39.91c35.288,0 63.891,-17.869 63.891,-39.91c0,-11.478 -7.772,-21.812 -20.2,-29.093Z" style="fill:#80ae41;fill-rule:nonzero;"/><path d="M2408.27,436.616c3.669,-4.244 5.762,-9.085 5.762,-14.222c0,-9.963 -7.834,-18.775 -19.887,-24.319c3.631,-3.522 5.759,-7.725 5.759,-12.25c0,-12.381 -16.478,-22.422 -35.987,-22.422c-0.253,0 1.706,0.019 -1.419,0.025l0,142.178c3.125,0.003 1.166,0.013 1.419,0.013c35.287,0 64.225,-17.869 64.225,-39.91c0,-11.478 -7.444,-21.812 -19.872,-29.093Z" style="fill:#90c63e;fill-rule:nonzero;"/><rect x="434.375" y="435.509" width="15.625" height="140.625" style="fill:#c49467;fill-rule:nonzero;"/><path d="M513.125,355.559c6.066,-7.021 9.531,-15.028 9.531,-23.534c0,-16.491 -12.965,-31.078 -32.915,-40.247c6.012,-5.834 9.534,-12.79 9.534,-20.278c0,-20.494 -26.175,-37.112 -58.463,-37.112c-32.29,0 -58.462,16.618 -58.462,37.112c0,7.488 3.522,14.444 9.531,20.278c-19.95,9.169 -32.919,23.756 -32.919,40.247c0,8.506 3.469,16.513 9.532,23.534c-20.563,12.05 -33.425,29.163 -33.425,48.16c0,36.475 47.34,66.05 105.743,66.05c58.401,0 105.738,-29.575 105.738,-66.05c0,-18.997 -12.863,-36.11 -33.425,-48.16Z" style="fill:#6a8a3a;fill-rule:nonzero;"/><path d="M513.125,355.559c6.066,-7.021 9.531,-15.028 9.531,-23.534c0,-16.491 -12.965,-31.078 -32.915,-40.247c6.012,-5.834 9.534,-12.79 9.534,-20.278c0,-20.494 -27.203,-37.112 -59.494,-37.112c-0.419,0 0.844,0.031 -2.281,0.04l0,235.319c3.125,0.003 1.862,0.022 2.281,0.022c58.403,0 106.256,-29.575 106.256,-66.05c0,-18.997 -12.35,-36.11 -32.912,-48.16Z" style="fill:#7fa73f;fill-rule:nonzero;"/><rect x="650" y="373.009" width="21.875" height="193.75" style="fill:#c49467;fill-rule:nonzero;"/><path d="M777.959,230.381c0,127.238 -49.89,230.388 -111.428,230.388c-61.54,0 -111.428,-103.15 -111.428,-230.388c0,-127.231 49.888,-230.381 111.428,-230.381c61.538,0 111.428,103.15 111.428,230.381Z" style="fill:#80ae41;fill-rule:nonzero;"/><path d="M665.347,0c-0.563,0 3.403,0.069 -2.847,0.084l0,460.597c6.25,0.019 2.284,0.088 2.847,0.088c61.541,0 111.425,-103.15 111.425,-230.388c0,-127.231 -49.884,-230.381 -111.425,-230.381Z" style="fill:#90c63e;fill-rule:nonzero;"/><path d="M1727.64,356.9l-12.26,-9.297l-46.634,56.803l0,-59.522l-15.625,0l0,59.522l-43.978,-56.803l-12.466,9.297l56.444,71.05l0,148.184l15.625,0l0,-148.184l58.894,-71.05Z" style="fill:#c49467;fill-rule:nonzero;"/><path d="M1739.33,237.453c-5.228,0 -10.328,0.553 -15.256,1.578c-13,-21.603 -36.61,-36.106 -63.663,-36.106c-29.715,0 -55.284,17.475 -67.187,42.675c-6.831,-2.081 -14.084,-3.216 -21.597,-3.216c-41.059,0 -74.344,33.288 -74.344,74.344c0,41.06 33.285,74.341 74.344,74.341c29.716,0 55.281,-17.472 67.181,-42.669c6.838,2.075 14.085,3.209 21.603,3.209c5.225,0 10.328,-0.546 15.25,-1.578c13.004,21.61 36.613,36.107 63.669,36.107c41.053,0 74.338,-33.282 74.338,-74.341c0,-41.063 -33.285,-74.344 -74.338,-74.344Z" style="fill:#80ae41;fill-rule:nonzero;"/><path d="M1739.33,237.453c-5.228,0 -11.578,0.553 -16.506,1.578c-12.766,-21.206 -35.322,-35.537 -63.447,-36.056l0,148.559c6.25,-0.093 10.578,-0.575 15.034,-1.503c13.003,21.61 37.238,36.107 64.294,36.107c41.05,0 74.65,-33.282 74.65,-74.341c0,-41.063 -32.972,-74.344 -74.025,-74.344Z" style="fill:#90c63e;fill-rule:nonzero;"/><rect x="168.75" y="429.259" width="9.375" height="146.875" style="fill:#c49467;fill-rule:nonzero;"/><path d="M240.875,398.966c1.338,-4.075 2.084,-8.413 2.084,-12.932c0,-22.887 -18.556,-41.45 -41.45,-41.45c-10.109,0 -19.365,3.632 -26.562,9.647c-7.194,-6.015 -16.45,-9.647 -26.563,-9.647c-22.89,0 -41.446,18.563 -41.446,41.45c0,4.519 0.746,8.857 2.084,12.932c-10.7,7.493 -17.71,19.893 -17.71,33.943c0,22.894 18.557,41.45 41.447,41.45c0.466,0 0.919,-0.056 1.382,-0.068c5.531,16.381 20.997,28.193 39.243,28.193c18.319,0 33.832,-11.893 39.313,-28.368c1.459,0.153 2.937,0.243 4.437,0.243c22.894,0 41.45,-18.556 41.45,-41.45c0,-14.05 -7.012,-26.45 -17.709,-33.943Z" style="fill:#97ab3b;fill-rule:nonzero;"/><path d="M240.875,398.966c1.338,-4.075 2.084,-8.413 2.084,-12.932c0,-22.887 -19.337,-41.45 -42.231,-41.45c-9.381,0 -16.353,3.154 -25.728,8.413l0,149.359c18.75,-1.284 31.753,-12.728 36.916,-28.24c1.459,0.153 3.328,0.243 4.828,0.243c22.893,0 41.647,-18.556 41.647,-41.45c0,-14.05 -6.819,-26.45 -17.516,-33.943Z" style="fill:#aac438;fill-rule:nonzero;"/><rect x="1090.63" y="479.259" width="6.25" height="90.625" style="fill:#c49467;fill-rule:nonzero;"/><path d="M1152.6,493.656c0,25.791 -25.647,40.922 -57.288,40.922c-31.64,0 -57.29,-15.131 -57.29,-40.922c0,-25.79 23.269,-43.406 57.29,-52.478c31.179,9.256 57.288,26.688 57.288,52.478Z" style="fill:#80ae41;fill-rule:nonzero;"/><path d="M1094.93,441.178c-0.269,0.075 1.944,0.153 -1.181,0.225l0,94.106l9.309,0c27.975,-3.125 49.35,-17.581 49.35,-41.228c0,-25.79 -26.3,-43.847 -57.478,-53.103Z" style="fill:#90c63e;fill-rule:nonzero;"/><rect x="1859.38" y="435.509" width="9.375" height="137.5" style="fill:#c49467;fill-rule:nonzero;"/><path d="M1895.76,475.7c0,17.531 -15.143,31.744 -33.821,31.744c-18.676,0 -33.813,-14.213 -33.813,-31.744c0,-17.525 15.137,-139.575 33.813,-139.575c18.678,0 33.821,122.05 33.821,139.575Z" style="fill:#4cab47;fill-rule:nonzero;"/><path d="M1868.4,507.384c15.584,0 26.069,-15.959 26.069,-31.415c0,-17.528 -13.222,-139.844 -35.097,-139.844l0,171.259l9.028,0Z" style="fill:#76c043;fill-rule:nonzero;"/><rect x="984.375" y="473.009" width="6.25" height="103.125" style="fill:#c49467;fill-rule:nonzero;"/><path d="M1030.93,491.166l-25.903,0.934l-16.819,19.725l-16.887,-19.669l-25.909,-0.853l4.85,-25.465l-15.485,-20.788l22.931,-12.081l6.6,-25.072l23.744,10.394l23.716,-10.472l6.678,25.047l22.972,12.009l-15.419,20.838l4.931,25.453Z" style="fill:#668539;fill-rule:nonzero;"/><path d="M1018.45,432.866l-6.678,-25.047l-23.622,10.472l-0.65,-0.325l0,92.809l0.806,1.05l16.772,-19.725l25.881,-0.934l-4.943,-25.453l15.412,-20.838l-22.978,-12.009Z" style="fill:#84ae40;fill-rule:nonzero;"/><rect x="2143.75" y="473.009" width="6.25" height="103.125" style="fill:#c49467;fill-rule:nonzero;"/><path d="M2190.31,491.166l-25.906,0.934l-16.815,19.725l-16.888,-19.669l-25.909,-0.853l4.85,-25.465l-15.485,-20.788l22.935,-12.081l6.597,-25.072l23.743,10.394l23.716,-10.472l6.678,25.047l22.975,12.009l-15.422,20.838l4.931,25.453Z" style="fill:#668539;fill-rule:nonzero;"/><path d="M2177.82,432.866l-6.678,-25.047l-23.619,10.472l-0.653,-0.325l0,92.809l0.806,1.05l16.772,-19.725l25.881,-0.934l-4.943,-25.453l15.415,-20.838l-22.981,-12.009Z" style="fill:#84ae40;fill-rule:nonzero;"/><rect x="1409.38" y="463.634" width="9.375" height="103.125" style="fill:#c49467;fill-rule:nonzero;"/><path d="M1490.69,516.759l-35.084,-40.625l23.616,0l-48.578,-56.25l30.218,0l-32.387,-37.5l21.059,0l-26.99,-31.25l14.843,0l-23.95,-27.734l-23.956,27.734l14.847,0l-26.991,31.25l21.06,0l-32.388,37.5l30.222,0l-48.581,56.25l23.615,0l-35.087,40.625l154.512,0Z" style="fill:#6a8a3a;fill-rule:nonzero;"/><path d="M1412.5,516.759l78.187,0l-35.084,-40.625l23.616,0l-48.578,-56.25l30.218,0l-32.387,-37.5l21.059,0l-26.99,-31.25l14.843,0l-22.937,-28.125l-1.947,0l0,193.75Z" style="fill:#8cb83f;fill-rule:nonzero;"/><rect x="1993.75" y="373.009" width="18.75" height="193.75" style="fill:#c49467;fill-rule:nonzero;"/><path d="M2146.86,473.009l-66.284,-78.125l44.619,0l-91.788,-106.25l57.097,0l-61.187,-68.75l39.784,0l-50.994,-59.375l28.047,0l-45.253,-52.403l-45.263,52.403l28.05,0l-50.993,59.375l39.79,0l-61.194,68.75l57.1,0l-91.787,106.25l44.616,0l-66.291,78.125l291.931,0Z" style="fill:#b4c634;fill-rule:nonzero;"/><path d="M2000,473.009l146.856,0l-66.284,-78.125l44.619,0l-91.788,-106.25l57.097,0l-61.187,-68.75l39.784,0l-50.994,-59.375l28.047,0l-43.341,-53.125l-2.809,0l0,365.625Z" style="fill:#c8ce48;fill-rule:nonzero;"/><rect x="300" y="498.009" width="6.25" height="75" style="fill:#c49467;fill-rule:nonzero;"/><path d="M358.087,535.509l-25.549,-28.125l17.2,0l-35.385,-40.625l22.01,0l-23.588,-28.125l15.338,0l-19.66,-21.875l10.813,0l-17.444,-20.203l-17.45,20.203l10.815,0l-19.659,21.875l15.338,0l-23.591,28.125l22.012,0l-35.381,40.625l17.197,0l-25.553,28.125l112.537,0Z" style="fill:#80ae41;fill-rule:nonzero;"/><path d="M300,535.509l58.087,0l-25.549,-28.125l17.2,0l-35.385,-40.625l22.01,0l-23.588,-28.125l15.338,0l-19.66,-21.875l10.813,0l-16.71,-21.875l-2.556,0l0,140.625Z" style="fill:#90c63e;fill-rule:nonzero;"/><path d="M927.772,443.488l-7.684,-5.891l-38.838,29.737l0,-41.2l-9.375,0l0,41.2l-34.541,-32.862l-7.684,5.891l42.225,38.762l0,93.884l9.375,0l0,-93.884l46.522,-35.637Z" style="fill:#c49467;fill-rule:nonzero;"/><path d="M930.859,374.891c0,29.272 -23.734,53.003 -53.009,53.003c-29.275,0 -53.006,-23.731 -53.006,-53.003c0,-29.278 23.731,-53.01 53.006,-53.01c29.275,0 53.009,23.732 53.009,53.01Z" style="fill:#80ae41;fill-rule:nonzero;"/><path d="M969.141,434.266c0,15.893 -12.891,28.784 -28.791,28.784c-15.9,0 -28.787,-12.891 -28.787,-28.784c0,-15.9 12.887,-28.791 28.787,-28.791c15.9,0 28.791,12.891 28.791,28.791Z" style="fill:#90c63e;fill-rule:nonzero;"/><path d="M856.641,440.709c0,12.554 -10.178,22.732 -22.735,22.732c-12.556,0 -22.734,-10.178 -22.734,-22.732c0,-12.556 10.178,-22.734 22.734,-22.734c12.557,0 22.735,10.178 22.735,22.734Z" style="fill:#80ae41;fill-rule:nonzero;"/><path d="M878.125,321.897l0,105.984c29.147,-0.15 52.734,-23.812 52.734,-52.99c0,-29.185 -23.587,-52.847 -52.734,-52.994Z" style="fill:#90c63e;fill-rule:nonzero;"/><path d="M150.969,566.759l-135.488,0c0,0 5.047,-6.243 11.05,-8.89c0,0 -5.525,-4.438 -11.05,-3.241c0,0 2.885,-8.112 12.972,-9.79c0,0 -10.569,0.634 -14.653,-5.372c0,0 6.725,-0.525 13.213,-4.61c0,0 -5.947,-5.372 -11.891,-3.928c0,0 4.503,-7.397 14.053,-7.397c0,0 -3.422,-3.068 -7.928,-2.35c0,0 3.784,-6.85 16.397,-7.387c0,0 -1.622,-4.51 -5.947,-5.231c0,0 6.128,-8.285 18.556,-7.385c0,0 -0.541,-6.487 -6.484,-6.847c0,0 7.568,-5.762 16.034,-1.081c0,0 0,-9.55 -3.422,-10.272c0,0 7.566,1.803 11.532,7.391c0,0 4.143,-4.144 0.718,-8.291c0,0 7.21,3.244 7.747,10.635c0,0 4.506,-8.11 3.066,-13.697c0,0 5.584,1.622 6.484,8.468c0,0 1.441,-4.865 5.947,-6.484c0,0 -0.541,3.781 0.9,7.744c0,0 2.703,-4.685 9.369,-7.385c0,0 -1.081,2.163 -1.081,7.569c0,0 4.684,-4.684 10.809,-5.228c0,0 -1.981,7.572 -1.981,10.091c0,0 6.487,-2.703 13.334,-1.8c0,0 -1.803,2.34 -3.966,7.022c0,0 8.65,-1.257 19.282,7.931c0,0 -5.947,2.703 -7.569,4.503c0,0 9.909,1.262 17.294,7.747c0,0 -7.025,0.9 -9.725,2.975c0,0 10.809,1.35 14.053,9.278c0,0 -8.469,-1.441 -10.991,3.062c0,0 4.141,0 11.891,7.569c0,0 -8.291,-0.181 -11.891,3.06c0,0 7.563,0.903 11.891,7.75c0,0 -7.028,1.262 -10.813,5.221c0,0 6.669,0 8.288,8.65Z" style="fill:#80ae41;fill-rule:nonzero;"/><path d="M131.172,560.509l-95.644,0c0,0 3.56,-4.846 7.8,-6.712c0,0 -3.903,-3.366 -7.8,-2.516c0,0 2.035,-5.837 9.153,-7.025c0,0 -7.459,0.397 -10.34,-3.843c0,0 4.747,-0.404 9.325,-3.282c0,0 -4.197,-3.809 -8.391,-2.787c0,0 3.178,-5.228 9.919,-5.228c0,0 -2.416,-2.172 -5.597,-1.666c0,0 2.672,-4.831 11.575,-5.212c0,0 -1.144,-3.188 -4.197,-3.697c0,0 4.322,-5.85 13.1,-5.216c0,0 -0.381,-4.572 -4.581,-4.831c0,0 5.344,-4.069 11.318,-0.763c0,0 0,-6.737 -2.415,-7.253c0,0 5.344,1.275 8.14,5.219c0,0 2.926,-2.925 0.513,-5.85c0,0 5.084,2.287 5.466,7.5c0,0 3.181,-5.719 2.162,-9.666c0,0 3.944,1.147 4.578,5.982c0,0 1.019,-3.438 4.2,-4.579c0,0 -0.384,2.669 0.635,5.469c0,0 1.906,-3.306 6.612,-5.219c0,0 -0.762,1.525 -0.762,5.347c0,0 3.306,-3.309 7.634,-3.687c0,0 -1.403,5.337 -1.403,7.119c0,0 4.581,-1.907 9.416,-1.272c0,0 -1.276,1.653 -2.8,4.959c0,0 6.103,-0.887 13.609,5.597c0,0 -4.197,1.906 -5.341,3.178c0,0 6.994,0.897 12.21,5.475c0,0 -4.963,0.634 -6.869,2.1c0,0 7.631,0.947 9.919,6.544c0,0 -5.978,-1.019 -7.76,2.162c0,0 2.928,0 8.397,5.344c0,0 -5.85,-0.128 -8.397,2.159c0,0 5.344,0.641 8.397,5.472c0,0 -4.959,1.335 -7.631,4.135c0,0 4.706,-2.832 5.85,6.543Z" style="fill:#90c63e;fill-rule:nonzero;"/><path d="M1825.97,566.759l-135.488,0c0,0 5.044,-6.243 11.047,-8.89c0,0 -5.522,-4.438 -11.047,-3.241c0,0 2.882,-8.112 12.969,-9.79c0,0 -10.569,0.634 -14.653,-5.372c0,0 6.725,-0.525 13.216,-4.61c0,0 -5.947,-5.372 -11.891,-3.928c0,0 4.503,-7.397 14.05,-7.397c0,0 -3.422,-3.068 -7.928,-2.35c0,0 3.787,-6.85 16.4,-7.387c0,0 -1.625,-4.51 -5.947,-5.231c0,0 6.125,-8.285 18.556,-7.385c0,0 -0.543,-6.487 -6.487,-6.847c0,0 7.568,-5.762 16.037,-1.081c0,0 0,-9.55 -3.422,-10.272c0,0 7.566,1.803 11.528,7.391c0,0 4.147,-4.144 0.722,-8.291c0,0 7.21,3.244 7.744,10.635c0,0 4.506,-8.11 3.066,-13.697c0,0 5.584,1.622 6.487,8.468c0,0 1.441,-4.865 5.944,-6.484c0,0 -0.537,3.781 0.9,7.744c0,0 2.703,-4.685 9.372,-7.385c0,0 -1.081,2.163 -1.081,7.569c0,0 4.684,-4.684 10.809,-5.228c0,0 -1.981,7.572 -1.981,10.091c0,0 6.484,-2.703 13.331,-1.8c0,0 -1.803,2.34 -3.962,7.022c0,0 8.65,-1.257 19.278,7.931c0,0 -5.947,2.703 -7.569,4.503c0,0 9.909,1.262 17.294,7.747c0,0 -7.025,0.9 -9.725,2.975c0,0 10.809,1.35 14.053,9.278c0,0 -8.469,-1.441 -10.991,3.062c0,0 4.144,0 11.891,7.569c0,0 -8.288,-0.181 -11.891,3.06c0,0 7.566,0.903 11.891,7.75c0,0 -7.028,1.262 -10.813,5.221c0,0 6.669,0 8.291,8.65Z" style="fill:#80ae41;fill-rule:nonzero;"/><path d="M1806.17,560.509l-95.647,0c0,0 3.563,-4.846 7.8,-6.712c0,0 -3.9,-3.366 -7.8,-2.516c0,0 2.035,-5.837 9.156,-7.025c0,0 -7.459,0.397 -10.343,-3.843c0,0 4.75,-0.404 9.328,-3.282c0,0 -4.197,-3.809 -8.394,-2.787c0,0 3.178,-5.228 9.922,-5.228c0,0 -2.419,-2.172 -5.597,-1.666c0,0 2.669,-4.831 11.572,-5.212c0,0 -1.141,-3.188 -4.197,-3.697c0,0 4.325,-5.85 13.103,-5.216c0,0 -0.384,-4.572 -4.581,-4.831c0,0 5.344,-4.069 11.319,-0.763c0,0 0,-6.737 -2.419,-7.253c0,0 5.344,1.275 8.144,5.219c0,0 2.922,-2.925 0.509,-5.85c0,0 5.088,2.287 5.466,7.5c0,0 3.184,-5.719 2.165,-9.666c0,0 3.941,1.147 4.578,5.982c0,0 1.016,-3.438 4.197,-4.579c0,0 -0.381,2.669 0.635,5.469c0,0 1.906,-3.306 6.612,-5.219c0,0 -0.762,1.525 -0.762,5.347c0,0 3.309,-3.309 7.637,-3.687c0,0 -1.406,5.337 -1.406,7.119c0,0 4.581,-1.907 9.416,-1.272c0,0 -1.272,1.653 -2.797,4.959c0,0 6.103,-0.887 13.606,5.597c0,0 -4.197,1.906 -5.341,3.178c0,0 6.994,0.897 12.21,5.475c0,0 -4.963,0.634 -6.869,2.1c0,0 7.631,0.947 9.922,6.544c0,0 -5.978,-1.019 -7.76,2.162c0,0 2.925,0 8.394,5.344c0,0 -5.847,-0.128 -8.394,2.159c0,0 5.341,0.641 8.394,5.472c0,0 -4.956,1.335 -7.628,4.135c0,0 4.703,-2.832 5.85,6.543Z" style="fill:#90c63e;fill-rule:nonzero;"/><path d="M1268.04,563.634c2.072,-3.125 3.253,-6.171 3.253,-9.284c0,-9.684 -11.419,-17.903 -25.619,-18.122c0,-0.112 0.019,-0.394 0.019,-0.509c0,-12.288 -10.325,-22.341 -23.063,-22.341c-10.081,0 -18.628,6.206 -21.762,14.9c-2.938,-3.519 -7.519,-5.822 -12.681,-5.822c-8.866,0 -16.054,6.675 -16.054,14.925c0,0.335 0.032,0.66 0.057,0.994c-1.725,-0.45 -3.554,-0.703 -5.447,-0.703c-10.494,0 -19,8.047 -19,17.075c0,2.981 0.943,5.762 2.559,8.887l117.738,0Z" style="fill:#74973d;fill-rule:nonzero;"/><path d="M1251.14,566.759c1.468,-1.825 2.309,-4.156 2.309,-6.368c0,-6.891 -8.119,-12.613 -18.222,-12.769c0.003,-0.081 0.016,-0.225 0.016,-0.306c0,-8.738 -7.344,-15.857 -16.403,-15.857c-7.169,0 -13.247,4.425 -15.475,10.61c-2.091,-2.503 -5.35,-4.131 -9.019,-4.131c-6.309,0 -11.422,4.753 -11.422,10.618c0,0.235 0.025,0.466 0.041,0.703c-1.228,-0.312 -2.525,-0.49 -3.872,-0.49c-7.466,0 -13.513,5.478 -13.513,11.906c0,2.116 0.669,4.259 1.819,6.084l83.741,0Z" style="fill:#90c63e;fill-rule:nonzero;"/><path d="M518.072,554.378c0,0 26.341,-13.65 48.987,14.938c0,0 -32.284,5.14 -48.987,-14.938Z" style="fill:#80ae41;fill-rule:nonzero;"/><path d="M547.813,521.856c0,0 -11.251,27.453 19.246,47.46c0,0 2.241,-32.616 -19.246,-47.46Z" style="fill:#80ae41;fill-rule:nonzero;"/><path d="M599.822,537.928c0,0 -4.053,29.391 -40.472,31.388c0,0 14.434,-29.332 40.472,-31.388Z" style="fill:#80ae41;fill-rule:nonzero;"/><path d="M614.856,554.5c0,0 -28.943,-16.391 -55.506,14.694c0,0 35.956,7.106 55.506,-14.694Z" style="fill:#80ae41;fill-rule:nonzero;"/><path d="M568.906,562.625c0.078,-0.341 8.232,-34.275 38.488,-57.809l-3.15,-4.057c-19.181,14.916 -29.785,33.429 -35.253,46.075c-0.375,-21.278 -2.597,-58.8 -13.203,-74.068l-4.222,2.931c13.918,20.041 12.287,85.622 12.268,86.281l5.072,0.647Z" style="fill:#80ae41;fill-rule:nonzero;"/><path d="M553.675,455.803l-4.091,-12.753l0.05,13.394l-7.831,-10.866l4.188,12.722l-10.807,-7.912l7.916,10.806l-12.725,-4.188l10.866,7.832l-13.397,-0.05l12.756,4.09l-12.756,4.091l13.397,-0.05l-10.866,7.834l12.725,-4.19l-7.916,10.809l10.807,-7.916l-4.188,12.725l7.831,-10.868l-0.05,13.393l4.091,-12.753l4.091,12.753l-0.05,-13.393l7.831,10.868l-4.184,-12.725l10.806,7.916l-7.913,-10.809l12.719,4.19l-10.862,-7.834l13.39,0.05l-12.753,-4.091l12.753,-4.09l-13.39,0.05l10.862,-7.832l-12.719,4.188l7.913,-10.806l-10.806,7.912l4.184,-12.722l-7.831,10.866l0.05,-13.394l-4.091,12.753Z" style="fill:#d2d3d4;fill-rule:nonzero;"/><path d="M542.256,468.528c0,6.31 5.113,11.422 11.419,11.422c6.306,0 11.419,-5.112 11.419,-11.422c0,-6.303 -5.113,-11.419 -11.419,-11.419c-6.306,0 -11.419,5.116 -11.419,11.419Z" style="fill:#f7bb30;fill-rule:nonzero;"/><path d="M610.213,484.072l-4.094,-12.753l0.053,13.394l-7.831,-10.866l4.187,12.722l-10.806,-7.913l7.912,10.807l-12.722,-4.188l10.866,7.831l-13.397,-0.05l12.753,4.091l-12.753,4.091l13.397,-0.05l-10.866,7.831l12.722,-4.188l-7.912,10.807l10.806,-7.913l-4.187,12.725l7.831,-10.869l-0.053,13.394l4.094,-12.753l4.09,12.753l-0.05,-13.394l7.831,10.869l-4.187,-12.725l10.809,7.913l-7.915,-10.807l12.721,4.188l-10.862,-7.831l13.391,0.05l-12.754,-4.091l12.754,-4.091l-13.391,0.05l10.862,-7.831l-12.721,4.188l7.915,-10.807l-10.809,7.913l4.187,-12.722l-7.831,10.866l0.05,-13.394l-4.09,12.753Z" style="fill:#d2d3d4;fill-rule:nonzero;"/><path d="M598.794,496.797c0,6.309 5.112,11.422 11.419,11.422c6.306,0 11.415,-5.113 11.415,-11.422c0,-6.306 -5.109,-11.419 -11.415,-11.419c-6.307,0 -11.419,5.113 -11.419,11.419Z" style="fill:#f7bb30;fill-rule:nonzero;"/><path d="M1648.47,554.044c0,0 -16.557,-8.578 -30.791,9.39c0,0 20.291,3.229 30.791,-9.39Z" style="fill:#80ae41;fill-rule:nonzero;"/><path d="M1629.77,533.606c0,0 7.072,17.25 -12.094,29.828c0,0 -1.406,-20.503 12.094,-29.828Z" style="fill:#80ae41;fill-rule:nonzero;"/><path d="M1597.08,543.706c0,0 2.55,18.469 25.435,19.728c0,0 -9.069,-18.437 -25.435,-19.728Z" style="fill:#80ae41;fill-rule:nonzero;"/><path d="M1587.64,554.119c0,0 18.187,-10.3 34.881,9.237c0,0 -22.594,4.463 -34.881,-9.237Z" style="fill:#80ae41;fill-rule:nonzero;"/><path d="M1616.51,559.225c-0.043,-0.212 -5.168,-21.541 -24.184,-36.331l1.981,-2.55c12.054,9.375 18.719,21.009 22.16,28.959c0.231,-13.372 1.622,-36.956 8.297,-46.553l2.643,1.841c-8.74,12.6 -7.715,53.812 -7.703,54.228l-3.194,0.406Z" style="fill:#80ae41;fill-rule:nonzero;"/><path d="M1626.09,492.088l2.568,-8.013l-0.031,8.419l4.922,-6.831l-2.634,7.993l6.793,-4.968l-4.968,6.787l7.993,-2.628l-6.831,4.922l8.422,-0.031l-8.016,2.568l8.016,2.575l-8.422,-0.034l6.831,4.922l-7.993,-2.635l4.968,6.797l-6.793,-4.975l2.634,7.997l-4.922,-6.831l0.031,8.422l-2.568,-8.019l-2.572,8.019l0.031,-8.422l-4.922,6.831l2.628,-7.997l-6.787,4.975l4.972,-6.797l-7.997,2.635l6.828,-4.922l-8.416,0.034l8.016,-2.575l-8.016,-2.568l8.416,0.031l-6.828,-4.922l7.997,2.628l-4.972,-6.787l6.787,4.968l-2.628,-7.993l4.922,6.831l-0.031,-8.419l2.572,8.013Z" style="fill:#d2d3d4;fill-rule:nonzero;"/><path d="M1633.27,500.088c0,3.965 -3.216,7.178 -7.175,7.178c-3.963,0 -7.178,-3.213 -7.178,-7.178c0,-3.963 3.215,-7.179 7.178,-7.179c3.959,0 7.175,3.216 7.175,7.179Z" style="fill:#f7bb30;fill-rule:nonzero;"/><path d="M1590.56,509.856l2.569,-8.015l-0.031,8.418l4.922,-6.831l-2.635,7.997l6.788,-4.975l-4.969,6.794l7.997,-2.631l-6.828,4.921l8.415,-0.031l-8.015,2.572l8.015,2.569l-8.415,-0.035l6.828,4.929l-7.997,-2.635l4.969,6.791l-6.788,-4.969l2.635,7.991l-4.922,-6.828l0.031,8.418l-2.569,-8.012l-2.575,8.012l0.032,-8.418l-4.922,6.828l2.634,-7.991l-6.794,4.969l4.975,-6.791l-8,2.635l6.832,-4.929l-8.419,0.035l8.019,-2.569l-8.019,-2.572l8.419,0.031l-6.832,-4.921l8,2.631l-4.975,-6.794l6.794,4.975l-2.634,-7.997l4.922,6.831l-0.032,-8.418l2.575,8.015Z" style="fill:#d2d3d4;fill-rule:nonzero;"/><path d="M1597.73,517.856c0,3.963 -3.209,7.175 -7.169,7.175c-3.965,0 -7.178,-3.212 -7.178,-7.175c0,-3.965 3.213,-7.178 7.178,-7.178c3.96,0 7.169,3.213 7.169,7.178Z" style="fill:#f7bb30;fill-rule:nonzero;"/><path d="M2273.47,554.044c0,0 -16.557,-8.578 -30.788,9.39c0,0 20.288,3.229 30.788,-9.39Z" style="fill:#80ae41;fill-rule:nonzero;"/><path d="M2254.77,533.606c0,0 7.072,17.25 -12.094,29.828c0,0 -1.409,-20.503 12.094,-29.828Z" style="fill:#80ae41;fill-rule:nonzero;"/><path d="M2222.08,543.706c0,0 2.55,18.469 25.438,19.728c0,0 -9.072,-18.437 -25.438,-19.728Z" style="fill:#80ae41;fill-rule:nonzero;"/><path d="M2212.64,554.119c0,0 18.187,-10.3 34.884,9.237c0,0 -22.597,4.463 -34.884,-9.237Z" style="fill:#80ae41;fill-rule:nonzero;"/><path d="M2241.52,559.225c-0.047,-0.212 -5.172,-21.541 -24.188,-36.331l1.981,-2.55c12.054,9.375 18.719,21.009 22.16,28.959c0.231,-13.372 1.625,-36.956 8.297,-46.553l2.646,1.841c-8.743,12.6 -7.718,53.812 -7.706,54.228l-3.19,0.406Z" style="fill:#80ae41;fill-rule:nonzero;"/><path d="M2251.09,492.088l2.568,-8.013l-0.031,8.419l4.922,-6.831l-2.631,7.993l6.79,-4.968l-4.968,6.787l7.993,-2.628l-6.828,4.922l8.419,-0.031l-8.016,2.568l8.016,2.575l-8.419,-0.034l6.828,4.922l-7.993,-2.635l4.968,6.797l-6.79,-4.975l2.631,7.997l-4.922,-6.831l0.031,8.422l-2.568,-8.019l-2.572,8.019l0.031,-8.422l-4.922,6.831l2.631,-7.997l-6.79,4.975l4.972,-6.797l-7.997,2.635l6.828,-4.922l-8.416,0.034l8.016,-2.575l-8.016,-2.568l8.416,0.031l-6.828,-4.922l7.997,2.628l-4.972,-6.787l6.79,4.968l-2.631,-7.993l4.922,6.831l-0.031,-8.419l2.572,8.013Z" style="fill:#d2d3d4;fill-rule:nonzero;"/><path d="M2258.27,500.088c0,3.965 -3.216,7.178 -7.175,7.178c-3.963,0 -7.178,-3.213 -7.178,-7.178c0,-3.963 3.215,-7.179 7.178,-7.179c3.959,0 7.175,3.216 7.175,7.179Z" style="fill:#f7bb30;fill-rule:nonzero;"/><path d="M2215.56,509.856l2.569,-8.015l-0.031,8.418l4.922,-6.831l-2.635,7.997l6.791,-4.975l-4.972,6.794l7.997,-2.631l-6.828,4.921l8.419,-0.031l-8.019,2.572l8.019,2.569l-8.419,-0.035l6.828,4.929l-7.997,-2.635l4.972,6.791l-6.791,-4.969l2.635,7.991l-4.922,-6.828l0.031,8.418l-2.569,-8.012l-2.575,8.012l0.032,-8.418l-4.922,6.828l2.634,-7.991l-6.794,4.969l4.975,-6.791l-8,2.635l6.832,-4.929l-8.419,0.035l8.019,-2.569l-8.019,-2.572l8.419,0.031l-6.832,-4.921l8,2.631l-4.975,-6.794l6.794,4.975l-2.634,-7.997l4.922,6.831l-0.032,-8.418l2.575,8.015Z" style="fill:#d2d3d4;fill-rule:nonzero;"/><path d="M2222.73,517.856c0,3.963 -3.209,7.175 -7.169,7.175c-3.965,0 -7.178,-3.212 -7.178,-7.175c0,-3.965 3.213,-7.178 7.178,-7.178c3.96,0 7.169,3.213 7.169,7.178Z" style="fill:#f7bb30;fill-rule:nonzero;"/><path d="M802.416,475.744c0,0 -43.444,41.947 -37.891,97.119c0,0 41.097,-41.775 37.891,-97.119Z" style="fill:#3dab49;fill-rule:nonzero;"/><path d="M824.741,518.259c0,0 -18.485,43.31 -60.219,54.6c0,0 19.012,-41.55 60.219,-54.6Z" style="fill:#3dab49;fill-rule:nonzero;"/><path d="M766.641,452.081c0,0 28.156,64.066 -2.041,120.782c0,0 -25.709,-62.847 2.041,-120.782Z" style="fill:#6fbe44;fill-rule:nonzero;"/><path d="M817.178,496.447c0,0 -9.225,52.959 -52.656,76.416c0,0 10.272,-51.147 52.656,-76.416Z" style="fill:#6fbe44;fill-rule:nonzero;"/><path d="M843.222,523.678c0,0 -53.322,6.841 -78.697,49.181c0,0 51.556,-7.971 78.697,-49.181Z" style="fill:#3dab49;fill-rule:nonzero;"/><path d="M735.034,485.066c0,0 37.066,38.931 30.063,87.797c0,0 -34.988,-38.697 -30.063,-87.797Z" style="fill:#3dab49;fill-rule:nonzero;"/><path d="M713.684,509.903c0,0 42.294,20.694 51.413,62.956c0,0 -40.51,-21.134 -51.413,-62.956Z" style="fill:#6fbe44;fill-rule:nonzero;"/><path d="M694.716,528.875c0,0 47.684,6.119 70.381,43.984c0,0 -46.109,-7.128 -70.381,-43.984Z" style="fill:#3dab49;fill-rule:nonzero;"/><path d="M1555.63,509.478c0,0 -28.356,27.378 -24.731,63.385c0,0 26.822,-27.263 24.731,-63.385Z" style="fill:#80ae41;fill-rule:nonzero;"/><path d="M1570.2,537.228c0,0 -12.062,28.263 -39.297,35.631c0,0 12.403,-27.118 39.297,-35.631Z" style="fill:#80ae41;fill-rule:nonzero;"/><path d="M1532.28,494.034c0,0 18.375,41.81 -1.334,78.829c0,0 -16.778,-41.019 1.334,-78.829Z" style="fill:#90c63e;fill-rule:nonzero;"/><path d="M1565.27,522.988c0,0 -6.019,34.568 -34.366,49.875c0,0 6.7,-33.382 34.366,-49.875Z" style="fill:#90c63e;fill-rule:nonzero;"/><path d="M1582.26,540.763c0,0 -34.801,4.462 -51.36,32.096c0,0 33.647,-5.2 51.36,-32.096Z" style="fill:#80ae41;fill-rule:nonzero;"/><path d="M1511.65,515.563c0,0 24.194,25.409 19.622,57.3c0,0 -22.834,-25.257 -19.622,-57.3Z" style="fill:#80ae41;fill-rule:nonzero;"/><path d="M1497.72,531.772c0,0 27.603,13.506 33.553,41.087c0,0 -26.441,-13.79 -33.553,-41.087Z" style="fill:#90c63e;fill-rule:nonzero;"/><path d="M1485.34,544.156c0,0 31.122,3.991 45.934,28.703c0,0 -30.094,-4.65 -45.934,-28.703Z" style="fill:#80ae41;fill-rule:nonzero;"/><path d="M2330.63,506.353c0,0 -28.356,27.378 -24.731,63.385c0,0 26.822,-27.263 24.731,-63.385Z" style="fill:#80ae41;fill-rule:nonzero;"/><path d="M2345.2,534.103c0,0 -12.062,28.263 -39.297,35.631c0,0 12.403,-27.118 39.297,-35.631Z" style="fill:#80ae41;fill-rule:nonzero;"/><path d="M2307.28,490.909c0,0 18.375,41.81 -1.334,78.829c0,0 -16.778,-41.019 1.334,-78.829Z" style="fill:#90c63e;fill-rule:nonzero;"/><path d="M2340.27,519.863c0,0 -6.019,34.568 -34.366,49.875c0,0 6.7,-33.382 34.366,-49.875Z" style="fill:#90c63e;fill-rule:nonzero;"/><path d="M2357.26,537.638c0,0 -34.8,4.462 -51.359,32.096c0,0 33.647,-5.2 51.359,-32.096Z" style="fill:#80ae41;fill-rule:nonzero;"/><path d="M2286.65,512.438c0,0 24.194,25.409 19.622,57.3c0,0 -22.834,-25.257 -19.622,-57.3Z" style="fill:#80ae41;fill-rule:nonzero;"/><path d="M2272.72,528.647c0,0 27.603,13.506 33.553,41.087c0,0 -26.441,-13.79 -33.553,-41.087Z" style="fill:#90c63e;fill-rule:nonzero;"/><path d="M2260.34,541.031c0,0 31.122,3.991 45.934,28.703c0,0 -30.094,-4.65 -45.934,-28.703Z" style="fill:#80ae41;fill-rule:nonzero;"/><path d="M1904.44,507.053c0,0 13.106,38.472 16.581,62.831l5.856,0c0,0 9.906,-33.975 19.263,-44.934c0,0 -10.157,8.403 -16.569,24.431c0,0 1.072,-26.262 10.422,-48.175c0,0 -8.019,13.86 -13.094,37.91c0,0 -1.603,-61.216 9.353,-87.4c0,0 -13.631,25.372 -13.631,77.218c0,0 -2.134,-27.534 -17.1,-45.971c0,0 13.628,30.075 14.966,61.606c0,0 -4.304,-18.535 -16.047,-37.516Z" style="fill:#9ab63b;fill-rule:nonzero;"/><path d="M2066.87,566.759l16.884,0c0,0 18.825,-18.109 50.894,-33.365c0,0 -21.172,2.628 -47.634,14.769l29.578,-39.007l-32.688,31.094l-7.475,-48.281l-9.559,48.247l-36.516,-35.497l34.553,43.584c0,0 -25.837,-10.547 -47.318,-15.528c0,0 23.228,7.497 49.281,33.984Z" style="fill:#2eab49;fill-rule:nonzero;"/><path d="M2116.59,509.069l-32.688,31.134l-7.984,-48.253l-0.922,2.084l0,72.725l8.756,0c0,0 18.825,-18.109 50.894,-33.365c0,0 -21.172,2.628 -47.634,14.769l29.578,-39.094Z" style="fill:#68bd51;fill-rule:nonzero;"/><rect x="0" y="566.759" width="2500" height="12.5" style="fill:#5f7634;fill-rule:nonzero;"/><path d="M2500,569.884l-5.772,-28.4l-4.906,17.982l-2.344,-25.128l-6.25,28.971l-3.647,-12.859l-4.425,12.972l-5.209,-22.419l-4.428,21.6l-3.644,-9.381l-3.125,9.112l-3.647,-2.865l-2.603,3.384l-6.512,-18.231l-5.469,17.45l-3.125,-9.113l-9.375,8.85l-7.55,-26.562l-4.169,21.875l-6.25,-10.675l-7.812,13.8l-6.25,-32.288l-10.157,41.925l116.669,0Z" style="fill:#5f7634;fill-rule:nonzero;"/><path d="M2382.13,552.113l-3.353,16.146l-7.225,-20.378l-5.159,13.672l-2.063,-3.481l-4.9,4.769l-5.418,-21.928l-4.644,22.446l-3.097,-11.246l-5.419,11.246l-3.612,-15.996l-5.416,15.996l-3.872,-8.771l-4.384,8.771l-6.45,-20.121l-5.159,20.378l-4.904,-11.503l-3.093,10.987l-4.903,-5.672l-6.707,6.706l-4.39,-21.671l-8.254,25.796l106.744,1.625l-4.322,-17.771Z" style="fill:#5f7634;fill-rule:nonzero;"/><path d="M2284.38,569.884l-5.772,-28.4l-4.906,17.982l-2.344,-25.128l-6.25,28.971l-3.647,-12.859l-4.425,12.972l-5.209,-22.419l-4.428,21.6l-3.644,-9.381l-3.125,9.112l-3.647,-2.865l-2.603,3.384l-6.512,-18.231l-5.469,17.45l-3.125,-9.113l-9.375,8.85l-7.55,-32.812l-4.169,28.125l-6.25,-10.675l-7.812,13.8l-6.25,-19.788l-10.157,29.425l116.669,0Z" style="fill:#5f7634;fill-rule:nonzero;"/><path d="M2166.51,552.113l-3.353,16.146l-7.225,-20.378l-5.159,13.672l-2.063,-3.481l-4.9,4.769l-5.418,-21.928l-4.644,22.446l-3.097,-11.246l-5.419,11.246l-3.612,-15.996l-5.416,15.996l-3.872,-8.771l-4.384,8.771l-6.45,-20.121l-5.159,20.378l-4.904,-11.503l-3.093,10.987l-4.903,-5.672l-6.707,6.706l-4.39,-21.671l-8.254,25.796l106.744,1.625l-4.322,-17.771Z" style="fill:#5f7634;fill-rule:nonzero;"/><path d="M2068.75,569.884l-5.772,-28.4l-4.906,17.982l-5.469,-28.253l-3.125,32.096l-3.647,-12.859l-4.425,12.972l-5.209,-22.419l-4.428,21.6l-3.644,-9.381l-3.125,9.112l-3.647,-2.865l-2.603,3.384l-6.512,-18.231l-5.469,17.45l-3.125,-9.113l-9.375,8.85l-7.55,-26.562l-4.169,21.875l-6.25,-10.675l-7.812,13.8l-6.25,-19.788l-10.157,29.425l116.669,0Z" style="fill:#5f7634;fill-rule:nonzero;"/><path d="M1950.88,552.113l-3.353,16.146l-7.225,-20.378l-5.159,13.672l-2.063,-3.481l-4.9,4.769l-5.418,-21.928l-4.644,22.446l-3.097,-11.246l-5.419,11.246l-3.612,-15.996l-5.416,15.996l-3.872,-8.771l-4.384,8.771l-6.45,-20.121l-5.159,20.378l-4.904,-11.503l-3.093,10.987l-4.903,-5.672l-6.707,6.706l-4.39,-21.671l-8.254,25.796l106.744,1.625l-4.322,-17.771Z" style="fill:#5f7634;fill-rule:nonzero;"/><path d="M1853.13,569.884l-5.772,-28.4l-4.906,17.982l-2.344,-25.128l-6.25,28.971l-3.647,-12.859l-4.425,12.972l-5.209,-22.419l-4.428,21.6l-3.644,-9.381l-3.125,9.112l-3.647,-2.865l-2.603,3.384l-6.512,-21.356l-5.469,20.575l-3.125,-9.113l-9.375,8.85l-7.55,-26.562l-4.169,21.875l-6.25,-10.675l-7.812,13.8l-6.25,-19.788l-10.157,29.425l116.669,0Z" style="fill:#5f7634;fill-rule:nonzero;"/><path d="M1735.26,552.113l-3.353,16.146l-7.225,-20.378l-5.159,13.672l-5.188,-6.606l-1.775,7.894l-5.418,-21.928l-4.644,22.446l-3.097,-11.246l-5.419,11.246l-3.612,-15.996l-5.416,15.996l-3.872,-8.771l-4.384,8.771l-6.45,-20.121l-5.159,20.378l-4.904,-11.503l-3.093,10.987l-4.903,-5.672l-6.707,6.706l-4.39,-21.671l-8.254,25.796l106.744,1.625l-4.322,-17.771Z" style="fill:#5f7634;fill-rule:nonzero;"/><path d="M1637.5,569.884l-5.772,-28.4l-4.906,17.982l-2.344,-25.128l-6.25,28.971l-3.647,-12.859l-4.425,12.972l-5.209,-22.419l-4.428,21.6l-3.644,-9.381l-3.125,9.112l-3.647,-2.865l-2.603,3.384l-6.513,-18.231l-5.468,17.45l-6.25,-12.238l-6.25,11.975l-7.55,-26.562l-4.169,21.875l-6.25,-10.675l-7.813,13.8l-6.25,-19.788l-10.156,29.425l116.669,0Z" style="fill:#5f7634;fill-rule:nonzero;"/><path d="M1519.63,552.113l-3.353,16.146l-7.225,-20.378l-5.159,13.672l-2.063,-3.481l-4.9,4.769l-5.418,-21.928l-4.644,22.446l-3.097,-11.246l-5.419,11.246l-3.612,-15.996l-5.416,15.996l-3.872,-8.771l-4.384,8.771l-6.45,-20.121l-5.159,20.378l-4.904,-11.503l-3.093,10.987l-4.903,-5.672l-6.707,6.706l-4.39,-21.671l-8.254,25.796l106.744,1.625l-4.322,-17.771Z" style="fill:#5f7634;fill-rule:nonzero;"/><path d="M1421.88,569.884l-5.772,-28.4l-4.906,17.982l-2.344,-25.128l-6.25,28.971l-3.647,-12.859l-4.425,12.972l-5.209,-22.419l-4.428,21.6l-3.644,-9.381l-3.125,9.112l-3.647,-2.865l-2.603,3.384l-6.513,-18.231l-5.468,17.45l-3.125,-9.113l-9.375,8.85l-7.55,-26.562l-4.169,21.875l-6.25,-10.675l-7.813,13.8l-6.25,-19.788l-10.156,29.425l116.669,0Z" style="fill:#5f7634;fill-rule:nonzero;"/><path d="M1304.01,552.113l-3.353,16.146l-7.225,-20.378l-5.159,13.672l-2.063,-3.481l-4.9,4.769l-5.418,-21.928l-4.644,22.446l-3.097,-11.246l-5.419,11.246l-3.612,-15.996l-5.416,15.996l-3.869,-8.771l-4.387,8.771l-6.45,-20.121l-5.159,20.378l-4.9,-11.503l-3.097,10.987l-4.903,-5.672l-6.707,6.706l-4.387,-21.671l-8.257,25.796l106.744,1.625l-4.322,-17.771Z" style="fill:#5f7634;fill-rule:nonzero;"/><path d="M1206.25,569.884l-5.769,-28.4l-4.909,17.982l-2.344,-25.128l-6.25,28.971l-3.647,-12.859l-4.425,12.972l-5.209,-22.419l-4.428,21.6l-3.644,-9.381l-3.125,9.112l-3.647,-2.865l-2.603,3.384l-6.513,-18.231l-5.468,17.45l-3.125,-9.113l-9.375,8.85l-7.55,-26.562l-4.169,21.875l-6.25,-10.675l-7.813,13.8l-6.25,-19.788l-10.156,29.425l116.669,0Z" style="fill:#5f7634;fill-rule:nonzero;"/><path d="M1088.38,552.113l-3.35,16.146l-7.228,-20.378l-5.156,13.672l-2.062,-3.481l-4.904,4.769l-5.418,-21.928l-4.644,22.446l-3.094,-11.246l-5.422,11.246l-3.612,-15.996l-5.413,15.996l-3.872,-8.771l-4.387,8.771l-6.45,-20.121l-5.159,20.378l-4.9,-11.503l-3.097,10.987l-4.903,-5.672l-6.707,6.706l-4.387,-21.671l-8.257,25.796l106.744,1.625l-4.322,-17.771Z" style="fill:#5f7634;fill-rule:nonzero;"/><path d="M990.625,569.884l-5.769,-28.4l-4.909,17.982l-2.344,-25.128l-6.25,28.971l-3.647,-12.859l-4.425,12.972l-5.209,-22.419l-4.428,21.6l-3.644,-9.381l-3.125,9.112l-3.647,-2.865l-2.603,3.384l-6.513,-18.231l-5.468,17.45l-3.125,-9.113l-9.375,8.85l-7.55,-26.562l-4.169,21.875l-6.25,-10.675l-7.813,13.8l-6.25,-19.788l-10.156,29.425l116.669,0Z" style="fill:#5f7634;fill-rule:nonzero;"/><path d="M872.759,552.113l-3.35,16.146l-7.228,-20.378l-5.156,13.672l-2.062,-3.481l-4.904,4.769l-5.418,-21.928l-4.644,22.446l-3.094,-11.246l-5.422,11.246l-3.612,-15.996l-5.413,15.996l-3.875,-8.771l-4.384,8.771l-6.45,-20.121l-5.159,20.378l-4.901,-11.503l-3.096,10.987l-4.904,-5.672l-6.706,6.706l-4.387,-21.671l-8.257,25.796l106.744,1.625l-4.322,-17.771Z" style="fill:#5f7634;fill-rule:nonzero;"/><path d="M775,569.884l-5.769,-28.4l-4.909,17.982l-2.344,-25.128l-6.25,28.971l-3.647,-12.859l-4.425,12.972l-5.209,-22.419l-4.428,21.6l-3.644,-9.381l-3.125,9.112l-3.647,-2.865l-2.603,3.384l-6.512,-18.231l-5.469,17.45l-3.125,-9.113l-9.375,8.85l-7.55,-26.562l-4.169,21.875l-6.25,-10.675l-7.812,13.8l-6.25,-19.788l-10.157,29.425l116.669,0Z" style="fill:#5f7634;fill-rule:nonzero;"/><path d="M657.134,552.113l-3.35,16.146l-7.228,-20.378l-5.156,13.672l-2.063,-3.481l-4.903,4.769l-5.418,-21.928l-4.644,22.446l-3.094,-11.246l-5.422,11.246l-3.612,-15.996l-5.413,15.996l-3.872,-8.771l-4.387,8.771l-6.45,-20.121l-5.159,20.378l-4.901,-11.503l-3.096,10.987l-4.904,-5.672l-6.706,6.706l-4.387,-21.671l-8.257,25.796l106.744,1.625l-4.322,-17.771Z" style="fill:#5f7634;fill-rule:nonzero;"/><path d="M559.375,569.884l-5.769,-28.4l-4.909,17.982l-2.344,-25.128l-6.25,28.971l-3.647,-12.859l-4.425,12.972l-5.209,-22.419l-4.428,21.6l-3.644,-9.381l-3.125,9.112l-3.647,-2.865l-2.603,3.384l-6.512,-18.231l-5.469,17.45l-3.125,-9.113l-9.375,8.85l-7.55,-26.562l-4.169,21.875l-6.25,-10.675l-7.812,13.8l-6.25,-19.788l-10.157,29.425l116.669,0Z" style="fill:#5f7634;fill-rule:nonzero;"/><path d="M441.509,552.113l-3.35,16.146l-7.228,-20.378l-5.156,13.672l-2.063,-3.481l-4.903,4.769l-5.418,-21.928l-4.647,22.446l-3.091,-11.246l-5.422,11.246l-3.612,-15.996l-5.413,15.996l-3.872,-8.771l-4.387,8.771l-6.45,-20.121l-5.159,20.378l-4.9,-11.503l-3.097,10.987l-4.904,-5.672l-6.706,6.706l-4.387,-21.671l-8.256,25.796l106.743,1.625l-4.322,-17.771Z" style="fill:#5f7634;fill-rule:nonzero;"/><path d="M343.75,569.884l-5.769,-28.4l-4.909,17.982l-2.344,-25.128l-6.25,28.971l-3.647,-12.859l-4.425,12.972l-5.209,-22.419l-4.428,21.6l-3.644,-9.381l-3.125,9.112l-3.647,-2.865l-2.603,3.384l-6.512,-18.231l-5.469,17.45l-3.125,-9.113l-9.375,8.85l-7.55,-26.562l-4.169,21.875l-6.25,-10.675l-7.812,13.8l-6.25,-19.788l-10.157,29.425l116.669,0Z" style="fill:#5f7634;fill-rule:nonzero;"/><path d="M225.884,552.113l-3.353,16.146l-7.225,-20.378l-5.156,13.672l-2.066,-3.481l-4.903,4.769l-5.415,-21.928l-4.647,22.446l-3.094,-11.246l-5.419,11.246l-3.612,-15.996l-5.416,15.996l-3.869,-8.771l-4.387,8.771l-6.453,-20.121l-5.157,20.378l-4.903,-11.503l-3.096,10.987l-4.9,-5.672l-6.71,6.706l-4.384,-21.671l-8.26,25.796l106.747,1.625l-4.322,-17.771Z" style="fill:#5f7634;fill-rule:nonzero;"/><path d="M0,559.925l9.178,-13.281l5.869,15.959l6.565,-15.894l6.251,13.538l7.812,-7.55l6.25,7.55l4.169,-18.75l7.55,20.312l6.25,-11.975l6.25,12.238l5.469,-17.45l6.512,18.231l2.603,-3.384l3.647,2.865l3.125,-9.112l3.644,9.381l4.428,-21.6l5.209,22.419l4.425,-12.972l3.647,12.859l6.25,-28.971l2.344,25.128l4.909,-17.982l5.769,28.4l-112.734,0l-3.935,0l-11.456,0l0,-9.959Z" style="fill:#5f7634;fill-rule:nonzero;"/><rect x="0" y="573.009" width="2500" height="12.5" style="fill:#80ae41;fill-rule:nonzero;"/><path d="M0,576.134l5.769,-28.4l4.906,17.982l2.344,-25.128l6.25,28.971l3.647,-12.859l4.428,12.972l5.209,-22.419l4.425,21.6l3.647,-9.381l3.125,9.112l3.647,-2.865l2.603,3.384l6.509,-18.231l5.469,17.45l3.125,-9.113l9.375,8.85l7.553,-26.562l4.166,21.875l6.25,-10.675l7.812,13.8l6.25,-32.288l10.157,41.925l-3.935,0l-112.731,0Z" style="fill:#80ae41;fill-rule:nonzero;"/><path d="M117.862,558.363l3.354,16.146l7.225,-20.378l5.159,13.672l2.062,-3.481l4.904,4.769l5.415,-21.928l4.647,22.446l3.094,-11.246l5.419,11.246l3.612,-15.996l5.416,15.996l3.872,-8.771l4.387,8.771l6.45,-20.121l5.156,20.378l4.904,-11.503l3.096,10.987l4.9,-5.672l6.71,6.706l4.387,-21.671l8.253,25.796l-106.743,1.625l4.321,-17.771Z" style="fill:#80ae41;fill-rule:nonzero;"/><path d="M215.625,576.134l5.769,-28.4l4.909,17.982l2.344,-25.128l6.25,28.971l3.644,-12.859l4.428,12.972l5.209,-22.419l4.425,21.6l3.647,-9.381l3.125,9.112l3.647,-2.865l2.603,3.384l6.509,-18.231l5.469,17.45l3.125,-9.113l9.375,8.85l7.553,-32.812l4.166,28.125l6.25,-10.675l7.812,13.8l6.25,-19.788l10.157,29.425l-3.935,0l-112.731,0Z" style="fill:#80ae41;fill-rule:nonzero;"/><path d="M333.488,558.363l3.356,16.146l7.222,-20.378l5.159,13.672l2.066,-3.481l4.9,4.769l5.418,-21.928l4.644,22.446l3.097,-11.246l5.416,11.246l3.615,-15.996l5.416,15.996l3.869,-8.771l4.387,8.771l6.45,-20.121l5.159,20.378l4.904,-11.503l3.093,10.987l4.904,-5.672l6.706,6.706l4.387,-21.671l8.257,25.796l-106.747,1.625l4.322,-17.771Z" style="fill:#80ae41;fill-rule:nonzero;"/><path d="M431.25,576.134l5.769,-28.4l4.909,17.982l5.469,-28.253l3.125,32.096l3.644,-12.859l4.428,12.972l5.209,-22.419l4.425,21.6l3.647,-9.381l3.125,9.112l3.647,-2.865l2.603,3.384l6.509,-18.231l5.469,17.45l3.125,-9.113l9.375,8.85l7.553,-26.562l4.166,21.875l6.25,-10.675l7.812,13.8l6.25,-19.788l10.157,29.425l-3.935,0l-112.731,0Z" style="fill:#80ae41;fill-rule:nonzero;"/><path d="M549.113,558.363l3.356,16.146l7.222,-20.378l5.159,13.672l2.066,-3.481l4.9,4.769l5.418,-21.928l4.644,22.446l3.097,-11.246l5.416,11.246l3.615,-15.996l5.416,15.996l3.869,-8.771l4.387,8.771l6.45,-20.121l5.159,20.378l4.904,-11.503l3.093,10.987l4.904,-5.672l6.706,6.706l4.387,-21.671l8.257,25.796l-106.747,1.625l4.322,-17.771Z" style="fill:#80ae41;fill-rule:nonzero;"/><path d="M646.875,576.134l5.769,-28.4l4.909,17.982l2.344,-25.128l6.25,28.971l3.644,-12.859l4.428,12.972l5.209,-22.419l4.425,21.6l3.647,-9.381l3.125,9.112l3.647,-2.865l2.603,3.384l6.509,-21.356l5.469,20.575l3.125,-9.113l9.375,8.85l7.553,-26.562l4.166,21.875l6.25,-10.675l7.812,13.8l6.25,-19.788l10.157,29.425l-3.935,0l-112.731,0Z" style="fill:#80ae41;fill-rule:nonzero;"/><path d="M764.738,558.363l3.356,16.146l7.222,-20.378l5.159,13.672l5.191,-6.606l1.775,7.894l5.418,-21.928l4.644,22.446l3.094,-11.246l5.416,11.246l3.618,-15.996l5.416,15.996l3.869,-8.771l4.387,8.771l6.45,-20.121l5.159,20.378l4.904,-11.503l3.093,10.987l4.903,-5.672l6.707,6.706l4.387,-21.671l8.257,25.796l-106.747,1.625l4.322,-17.771Z" style="fill:#80ae41;fill-rule:nonzero;"/><path d="M862.5,576.134l5.769,-28.4l4.909,17.982l2.344,-25.128l6.25,28.971l3.644,-12.859l4.428,12.972l5.209,-22.419l4.425,21.6l3.647,-9.381l3.125,9.112l3.647,-2.865l2.603,3.384l6.509,-18.231l5.469,17.45l6.25,-12.238l6.25,11.975l7.553,-26.562l4.166,21.875l6.25,-10.675l7.812,13.8l6.25,-19.788l10.157,29.425l-3.935,0l-112.731,0Z" style="fill:#80ae41;fill-rule:nonzero;"/><path d="M980.363,558.363l3.356,16.146l7.222,-20.378l5.159,13.672l2.066,-3.481l4.9,4.769l5.418,-21.928l4.644,22.446l3.097,-11.246l5.416,11.246l3.615,-15.996l5.416,15.996l3.869,-8.771l4.387,8.771l6.45,-20.121l5.159,20.378l4.904,-11.503l3.093,10.987l4.903,-5.672l6.707,6.706l4.387,-21.671l8.257,25.796l-106.747,1.625l4.322,-17.771Z" style="fill:#80ae41;fill-rule:nonzero;"/><path d="M1078.13,576.134l5.769,-28.4l4.909,17.982l2.344,-25.128l6.25,28.971l3.644,-12.859l4.428,12.972l5.209,-22.419l4.425,21.6l3.647,-9.381l3.125,9.112l3.647,-2.865l2.603,3.384l6.509,-18.231l5.469,17.45l3.125,-9.113l9.375,8.85l7.553,-26.562l4.166,21.875l6.25,-10.675l7.812,13.8l6.25,-19.788l10.157,29.425l-3.935,0l-112.731,0Z" style="fill:#80ae41;fill-rule:nonzero;"/><path d="M1195.99,558.363l3.356,16.146l7.222,-20.378l5.159,13.672l2.066,-3.481l4.9,4.769l5.418,-21.928l4.644,22.446l3.097,-11.246l5.416,11.246l3.615,-15.996l5.416,15.996l3.869,-8.771l4.387,8.771l6.45,-20.121l5.159,20.378l4.9,-11.503l3.097,10.987l4.903,-5.672l6.707,6.706l4.387,-21.671l8.257,25.796l-106.747,1.625l4.322,-17.771Z" style="fill:#80ae41;fill-rule:nonzero;"/><path d="M1293.75,576.134l5.769,-28.4l4.909,17.982l2.344,-25.128l6.25,28.971l3.647,-12.859l4.425,12.972l5.209,-22.419l4.428,21.6l3.644,-9.381l3.125,9.112l3.647,-2.865l2.603,3.384l6.513,-18.231l5.468,17.45l3.125,-9.113l9.375,8.85l7.55,-26.562l4.169,21.875l6.25,-10.675l7.813,13.8l6.25,-19.788l10.156,29.425l-3.938,0l-112.731,0Z" style="fill:#80ae41;fill-rule:nonzero;"/><path d="M1411.62,558.363l3.35,16.146l7.228,-20.378l5.156,13.672l2.062,-3.481l4.904,4.769l5.418,-21.928l4.644,22.446l3.094,-11.246l5.422,11.246l3.612,-15.996l5.413,15.996l3.872,-8.771l4.387,8.771l6.45,-20.121l5.159,20.378l4.9,-11.503l3.097,10.987l4.903,-5.672l6.707,6.706l4.387,-21.671l8.257,25.796l-106.744,1.625l4.322,-17.771Z" style="fill:#80ae41;fill-rule:nonzero;"/><path d="M1509.38,576.134l5.769,-28.4l4.909,17.982l2.344,-25.128l6.25,28.971l3.647,-12.859l4.425,12.972l5.209,-22.419l4.428,21.6l3.644,-9.381l3.125,9.112l3.647,-2.865l2.603,3.384l6.513,-18.231l5.468,17.45l3.125,-9.113l9.375,8.85l7.55,-26.562l4.169,21.875l6.25,-10.675l7.812,13.8l6.25,-19.788l10.157,29.425l-3.941,0l-112.728,0Z" style="fill:#80ae41;fill-rule:nonzero;"/><path d="M1627.24,558.363l3.353,16.146l7.228,-20.378l5.156,13.672l2.062,-3.481l4.904,4.769l5.418,-21.928l4.644,22.446l3.094,-11.246l5.422,11.246l3.612,-15.996l5.413,15.996l3.872,-8.771l4.387,8.771l6.45,-20.121l5.159,20.378l4.9,-11.503l3.097,10.987l4.903,-5.672l6.707,6.706l4.387,-21.671l8.257,25.796l-106.744,1.625l4.319,-17.771Z" style="fill:#80ae41;fill-rule:nonzero;"/><path d="M1725,576.134l5.769,-28.4l4.909,17.982l2.344,-25.128l6.25,28.971l3.647,-12.859l4.425,12.972l5.209,-22.419l4.428,21.6l3.644,-9.381l3.125,9.112l3.647,-2.865l2.603,3.384l6.512,-18.231l5.469,17.45l3.125,-9.113l9.375,8.85l7.55,-26.562l4.169,21.875l6.25,-10.675l7.812,13.8l6.25,-19.788l10.157,29.425l-3.938,0l-112.731,0Z" style="fill:#80ae41;fill-rule:nonzero;"/><path d="M1842.87,558.363l3.35,16.146l7.228,-20.378l5.156,13.672l2.062,-3.481l4.904,4.769l5.418,-21.928l4.644,22.446l3.094,-11.246l5.422,11.246l3.612,-15.996l5.413,15.996l3.872,-8.771l4.387,8.771l6.45,-20.121l5.159,20.378l4.9,-11.503l3.097,10.987l4.903,-5.672l6.707,6.706l4.387,-21.671l8.257,25.796l-106.744,1.625l4.322,-17.771Z" style="fill:#80ae41;fill-rule:nonzero;"/><path d="M1940.63,576.134l5.769,-28.4l4.909,17.982l2.344,-25.128l6.25,28.971l3.647,-12.859l4.425,12.972l5.209,-22.419l4.428,21.6l3.644,-9.381l3.125,9.112l3.647,-2.865l2.603,3.384l6.512,-18.231l5.469,17.45l3.125,-9.113l9.375,8.85l7.55,-26.562l4.169,21.875l6.25,-10.675l7.812,13.8l6.25,-19.788l10.157,29.425l-3.938,0l-112.731,0Z" style="fill:#80ae41;fill-rule:nonzero;"/><path d="M2058.49,558.363l3.35,16.146l7.228,-20.378l5.156,13.672l2.062,-3.481l4.904,4.769l5.418,-21.928l4.644,22.446l3.094,-11.246l5.422,11.246l3.612,-15.996l5.413,15.996l3.872,-8.771l4.387,8.771l6.45,-20.121l5.159,20.378l4.9,-11.503l3.097,10.987l4.903,-5.672l6.707,6.706l4.387,-21.671l8.257,25.796l-106.744,1.625l4.322,-17.771Z" style="fill:#80ae41;fill-rule:nonzero;"/><path d="M2156.25,576.134l5.769,-28.4l4.909,17.982l2.344,-25.128l6.25,28.971l3.647,-12.859l4.425,12.972l5.209,-22.419l4.428,21.6l3.644,-9.381l3.125,9.112l3.647,-2.865l2.603,3.384l6.512,-18.231l5.469,17.45l3.125,-9.113l9.375,8.85l7.55,-26.562l4.169,21.875l6.25,-10.675l7.812,13.8l6.25,-19.788l10.157,29.425l-3.938,0l-112.731,0Z" style="fill:#80ae41;fill-rule:nonzero;"/><path d="M2274.12,558.363l3.35,16.146l7.228,-20.378l5.156,13.672l2.062,-3.481l4.904,4.769l5.418,-21.928l4.644,22.446l3.094,-11.246l5.422,11.246l3.612,-15.996l5.413,15.996l3.872,-8.771l4.387,8.771l6.45,-20.121l5.159,20.378l4.9,-11.503l3.097,10.987l4.903,-5.672l6.707,6.706l4.387,-21.671l8.257,25.796l-106.744,1.625l4.322,-17.771Z" style="fill:#80ae41;fill-rule:nonzero;"/><path d="M2500,566.175l-9.178,-13.281l-5.869,15.959l-6.566,-15.894l-6.25,13.538l-7.812,-7.55l-6.25,7.55l-4.169,-18.75l-7.55,20.312l-6.25,-11.975l-6.25,12.238l-5.469,-17.45l-6.512,18.231l-2.603,-3.384l-3.647,2.865l-3.125,-9.112l-3.644,9.381l-4.428,-21.6l-5.209,22.419l-4.425,-12.972l-3.647,12.859l-6.25,-28.971l-2.344,25.128l-4.909,-17.982l-5.769,28.4l128.125,0l0,-9.959Z" style="fill:#80ae41;fill-rule:nonzero;"/></svg>